name analog
datacolumns 19
datarows 32
range 0.0 0.0155
endheader
time	ground_force_vx	ground_force_vy	ground_force_vz	ground_force_px	ground_force_py	ground_force_pz	l_ground_force_vx	l_ground_force_vy	l_ground_force_vz	l_ground_force_px	l_ground_force_py	l_ground_force_pz	ground_torque_x	ground_torque_y	ground_torque_z	l_ground_torque_x	l_ground_torque_y	l_ground_torque_z
0.0	-0.0	-0.0	-0.0	19.52973937988281	18.62457656860352	-246.2101287841797	-8.523785591125488	-19.427011489868164	-259.69451904296875	-0.0	-0.0	-0.0	-0.0	-0.0	-0.0	85356.34375	-8777.216796875	-3222.28662109375
0.0005	-0.0	-0.0	-0.0	19.35493850708008	18.73233795166016	-248.6238555908203	-8.871078491210938	-19.434589385986328	-259.3442077636719	-0.0	-0.0	-0.0	-0.0	-0.0	-0.0	85439.5390625	-8965.9189453125	-3248.472900390625
0.001	-0.0	-0.0	-0.0	19.258012771606445	19.33366584777832	-247.93231201171875	-8.520147323608398	-19.69184112548828	-258.7521667480469	-0.0	-0.0	-0.0	-0.0	-0.0	-0.0	85651.546875	-8782.2060546875	-3225.242919921875
0.0015	-0.0	-0.0	-0.0	19.180259704589844	18.98089027404785	-245.813232421875	-8.697638511657715	-19.764236450195312	-259.6434326171875	-0.0	-0.0	-0.0	-0.0	-0.0	-0.0	85599.2265625	-8789.1826171875	-3302.582763671875
0.002	-0.0	-0.0	-0.0	19.00183868408203	19.16698265075684	-246.8571319580078	-8.705781936645508	-19.442842483520508	-258.67364501953125	-0.0	-0.0	-0.0	-0.0	-0.0	-0.0	85692.015625	-8848.0126953125	-3391.479248046875
0.0025	-0.0	-0.0	-0.0	19.07494163513184	18.927833557128903	-245.4441070556641	-9.322870254516602	-19.779956817626957	-260.11798095703125	-0.0	-0.0	-0.0	-0.0	-0.0	-0.0	86032.5	-8989.958984375	-3447.173828125
0.003	-0.0	-0.0	-0.0	18.649093627929688	19.26444625854492	-244.68881225585935	-9.225921630859377	-19.763208389282227	-259.7193603515625	-0.0	-0.0	-0.0	-0.0	-0.0	-0.0	86361.1796875	-8945.5712890625	-3565.6640625
0.0035	-0.0	-0.0	-0.0	18.819259643554688	18.8189754486084	-243.7106170654297	-9.585013389587402	-19.943782806396484	-259.08721923828125	-0.0	-0.0	-0.0	-0.0	-0.0	-0.0	85864.53125	-8785.6171875	-3513.659912109375
0.004	-0.0	-0.0	-0.0	18.13937759399414	19.587533950805664	-244.0305633544922	-9.505029678344728	-19.60741424560547	-260.1009521484375	-0.0	-0.0	-0.0	-0.0	-0.0	-0.0	86094.8046875	-8678.82421875	-3541.76123046875
0.0045000000000000005	-0.0	-0.0	-0.0	18.453689575195312	19.710691452026367	-244.3325042724609	-9.76695728302002	-19.788423538208008	-260.7817687988281	-0.0	-0.0	-0.0	-0.0	-0.0	-0.0	86293.453125	-9080.4462890625	-3513.795654296875
0.005	-0.0	-0.0	-0.0	18.729833602905277	19.256534576416016	-242.9531707763672	-10.086255073547363	-19.792943954467773	-259.8039245605469	-0.0	-0.0	-0.0	-0.0	-0.0	-0.0	86051.90625	-9156.4736328125	-3683.08056640625
0.0055	-0.0	-0.0	-0.0	18.30592536926269	19.59981155395508	-243.2354431152344	-10.183611869812012	-19.709272384643555	-260.44927978515625	-0.0	-0.0	-0.0	-0.0	-0.0	-0.0	86291.671875	-8708.1552734375	-3634.29248046875
0.006	-0.0	-0.0	-0.0	18.0655517578125	19.43042755126953	-241.1862335205078	-10.02431869506836	-19.347021102905277	-260.44903564453125	-0.0	-0.0	-0.0	-0.0	-0.0	-0.0	86149.6796875	-9030.431640625	-3574.79931640625
0.006500000000000001	-0.0	-0.0	-0.0	18.56036758422852	19.01223373413086	-239.8635711669922	-10.117698669433594	-19.86773109436035	-260.11798095703125	-0.0	-0.0	-0.0	-0.0	-0.0	-0.0	86053.09375	-8885.505859375	-3631.2548828125
0.007	-0.0	-0.0	-0.0	18.560436248779297	19.50097274780273	-240.7398376464844	-10.285712242126465	-19.70045280456543	-260.4484558105469	-0.0	-0.0	-0.0	-0.0	-0.0	-0.0	86433.1796875	-8824.337890625	-3657.826904296875
0.0075	-0.0	-0.0	-0.0	18.47128677368164	18.745624542236328	-240.12506103515625	-10.029117584228516	-20.020357131958008	-260.7973937988281	-0.0	-0.0	-0.0	-0.0	-0.0	-0.0	86388.6328125	-8852.5390625	-3626.4169921875
0.008	-0.0	-0.0	-0.0	18.377365112304688	18.666526794433597	-239.8091735839844	-10.196864128112791	-19.617122650146484	-261.8253173828125	-0.0	-0.0	-0.0	-0.0	-0.0	-0.0	86260.4375	-8925.91796875	-3627.986572265625
0.0085	-0.0	-0.0	-0.0	18.45203018188477	18.741605758666992	-238.71124267578125	-10.270708084106444	-20.014623641967773	-261.805419921875	-0.0	-0.0	-0.0	-0.0	-0.0	-0.0	86337.703125	-8936.4013671875	-3570.422607421875
0.009000000000000001	-0.0	-0.0	-0.0	18.10973358154297	18.910409927368164	-237.74859619140625	-9.851909637451172	-19.69074440002441	-261.5343017578125	-0.0	-0.0	-0.0	-0.0	-0.0	-0.0	86378.3984375	-8903.451171875	-3453.036865234375
0.0095	-0.0	-0.0	-0.0	18.055496215820312	19.390493392944336	-236.00331115722656	-9.596012115478516	-20.20036506652832	-261.5745849609375	-0.0	-0.0	-0.0	-0.0	-0.0	-0.0	86655.6484375	-8967.322265625	-3479.249267578125
0.01	-0.0	-0.0	-0.0	18.392534255981445	19.326141357421875	-237.04379272460935	-9.591050148010254	-19.508852005004883	-261.5145874023437	-0.0	-0.0	-0.0	-0.0	-0.0	-0.0	86756.96875	-8860.953125	-3395.196533203125
0.0105	-0.0	-0.0	-0.0	18.44090461730957	18.900774002075195	-235.94451904296875	-9.512932777404783	-19.597021102905277	-262.1718139648437	-0.0	-0.0	-0.0	-0.0	-0.0	-0.0	86832.1953125	-9079.1923828125	-3424.853271484375
0.011	-0.0	-0.0	-0.0	18.534969329833984	18.81171417236328	-237.91964721679688	-9.325210571289062	-19.275192260742188	-264.2037048339844	-0.0	-0.0	-0.0	-0.0	-0.0	-0.0	87076.03125	-9054.5576171875	-3358.258544921875
0.0115	-0.0	-0.0	-0.0	18.38262939453125	19.052867889404297	-236.1940155029297	-8.991883277893066	-18.922143936157227	-264.1814880371094	-0.0	-0.0	-0.0	-0.0	-0.0	-0.0	87122.53125	-8981.4287109375	-3263.513671875
0.012	-0.0	-0.0	-0.0	17.947338104248047	18.733396530151367	-235.9241943359375	-9.292927742004396	-18.662887573242188	-265.70440673828125	-0.0	-0.0	-0.0	-0.0	-0.0	-0.0	87415.1171875	-8950.1904296875	-3213.25146484375
0.0125	-0.0	-0.0	-0.0	18.104331970214844	18.80111694335937	-233.7623443603516	-9.54784870147705	-19.066560745239254	-266.4242858886719	-0.0	-0.0	-0.0	-0.0	-0.0	-0.0	87788.1953125	-9466.1865234375	-3124.523193359375
0.013000000000000001	-0.0	-0.0	-0.0	17.99860382080078	18.0262393951416	-232.76727294921875	-8.710346221923828	-18.713119506835938	-264.65692138671875	-0.0	-0.0	-0.0	-0.0	-0.0	-0.0	87841.625	-9460.1044921875	-2951.408447265625
0.0135	-0.0	-0.0	-0.0	18.338518142700195	18.94596290588379	-233.82708740234372	-9.031601905822754	-18.96673011779785	-265.0282592773437	-0.0	-0.0	-0.0	-0.0	-0.0	-0.0	87934.5625	-9274.2705078125	-2949.864501953125
0.014	-0.0	-0.0	-0.0	16.765966415405273	22.23776054382324	-238.8384704589844	-8.544698715209961	-19.05481338500977	-266.796630859375	-0.0	-0.0	-0.0	-0.0	-0.0	-0.0	88200.703125	-9483.3203125	-3005.0810546875
0.0145	-0.0	-0.0	-0.0	14.184471130371094	23.886947631835938	-241.79315185546875	-8.664807319641113	-18.806774139404297	-267.79931640625	-0.0	-0.0	-0.0	-0.0	-0.0	-0.0	88566.8046875	-9551.712890625	-3167.626953125
0.015	-0.0	-0.0	-0.0	10.1038179397583	23.786312103271484	-244.4005126953125	-8.522074699401855	-18.812519073486328	-266.86676025390625	-0.0	-0.0	-0.0	-0.0	-0.0	-0.0	88632.40625	-9866.3779296875	-2799.259033203125
0.0155	-0.0	-0.0	-0.0	7.148476123809815	23.078962326049805	-247.2489776611328	-8.995406150817871	-18.959794998168945	-268.0091247558594	-0.0	-0.0	-0.0	-0.0	-0.0	-0.0	88654.4921875	-9721.416015625	-2829.297119140625
